<svg id="图层_1" data-name="图层 1" xmlns="http://www.w3.org/2000/svg" xmlns:xlink="http://www.w3.org/1999/xlink" viewBox="0 0 380 380"><defs><style>.cls-1{fill:none;}.cls-2{clip-path:url(#clip-path);}.cls-3{fill:#25df66;}</style><clipPath id="clip-path"><rect class="cls-1" x="10.92" y="9.17" width="360" height="360.39"/></clipPath></defs><title>SVG切图</title><g class="cls-2"><path class="cls-3" d="M190.73,9.4A179.86,179.86,0,1,0,370.59,189.26,179.86,179.86,0,0,0,190.73,9.4Zm98.36,137.13L171.85,263.77a7,7,0,0,1-9.94,0L92.36,194.22a7,7,0,0,1,0-9.93l21.86-21.86a7,7,0,0,1,9.93,0l42.73,42.72,90.42-90.42a7,7,0,0,1,9.93,0l21.86,21.86a7,7,0,0,1,0,9.93Zm0,0"/></g></svg>